<svg xmlns="http://www.w3.org/2000/svg" version="1.1" xmlns:xlink="http://www.w3.org/1999/xlink" xmlns:svgjs="http://svgjs.dev/svgjs" width="1500" height="1500" viewBox="0 0 1500 1500"><rect width="1500" height="1500" fill="#f9f9f9"></rect><g transform="matrix(0.6666666666666666,0,0,0.6666666666666666,250.00000781249992,187.66666666666674)"><svg viewBox="0 0 320 360" data-background-color="#f9f9f9" preserveAspectRatio="xMidYMid meet" height="1687" width="1500" xmlns="http://www.w3.org/2000/svg" xmlns:xlink="http://www.w3.org/1999/xlink"><g id="tight-bounds" transform="matrix(1,0,0,1,0.0000025000000505315256,0)"><svg viewBox="0 0 320 360" height="360" width="320"><g><svg></svg></g><g><svg viewBox="0 0 320 360" height="360" width="320"><g><path transform="translate(-19.44751,3.1739) scale(3.53591,3.53591)" d="M67.6 10.7c0.2 0 1.8 0.8 2.7 1.1-0.3 0.1-1-0.2-1.8-0.5 0.2 0 0.6 0.1 1 0.3-0.2-0.2-1.7-0.7-1.9-0.9M52.7 7.6c0.3-0.1 3.8 0.4 5.4 0.5 0.1-0.1-0.2-0.1-0.6-0.2 0.5-0.1 1.5 0.2 2.2 0.3-2.1 0.1-4.4-0.5-6.4-0.3-0.7 0-0.2-0.2-0.6-0.3M49.8 7.6c1.8 0 3.2 0 0.6 0.2-0.3-0.1-0.7-0.1-0.6-0.2M78.1 15.9c0.2 0 1 0.9 1.4 1.2-0.1 0.1-0.9-0.7-1.3-1 0.1 0.1 0 0-0.1-0.2M76.1 14.6c-0.8-0.7-1.1-0.7-1.2-1.1 0.7 0.4 1.2 0.8 1.2 1.1M63.2 8.3c0.1-0.1 0.3 0.1 0.8 0.2-0.6-0.1-0.5 0-0.3 0.2-0.7-0.1-0.9-0.2-0.7-0.4 0.4 0.2 0.5 0.1 0.2 0M34.8 9.5c0-0.1 0.4-0.3 0.7-0.4-0.3 0.2-0.2 0.3 0.3 0.1 0 0.1-0.6 0.3-1 0.5 0.2-0.1 0.4-0.4 0-0.2M65.2 7.3c-0.3 0.1-1.4-0.5-2.5-0.7-0.6-0.2 2.4 0.5 2.5 0.7M6.2 56.7c0.6 2.5 0.2 2.4 0 0M6.3 41.7c0.1-0.4 0.2-1.5 0.3-1.4-0.3 2.4-0.8 3.5-0.9 5.3 0.3-1.6-0.1 0.9-0.2 1.5 0.1 0.8 0.1-0.5 0.3-0.3 0.2 0.3-0.4 4.5-0.2 2.2-0.2 2.1 0 4.4 0.4 5-0.5 3.2 2 10.4 2.5 11.9 0.1 0.1 0-0.5 0.2-0.1 0.2 1.3 1.1 2.2 1.4 3.6 0.3 0.4 1.5 2.6 1.7 3.1 0.4 0.8 0.6 0.7 1 1.5 1.2 2.3 3.1 4.5 4.9 6.6 5.8 6.8 14.7 12.4 24.6 14.4 9.9 2.1 20.3 0.6 28.4-3.3 0.5-0.3 0.4-0.4 1-0.6 2.8-0.9 6.2-3.8 8.1-4.9 0.9-1 3.3-2.7 3.6-3.7 1.7-1.4 3.4-3.7 4.3-5.2 0.5-0.8 0.9-0.8 1.1-1.3-0.1 0 1.6-2.1 2.1-3.3-0.2 0-0.5 0.6-0.5 0 3.6-6.9 5.6-16.2 4.5-22.6 0.2 7.9-1.8 16.7-5.6 22.3-1.7 3.6-5.2 7.5-8.4 10.3-0.5 0.5-1 1.1-1.6 1.5-1.9 1.6-4 2.9-6.2 4.1-5.2 2.9-11 5.4-17.8 5.5 11.7-1 22.2-6.9 28-14.1-4.4 4.3-6.3 6-11.2 8.5-0.4 0.7-3.7 2.1-5.9 2.7 1.3-0.6 4-1.6 4.9-2.4-7.3 3.5-15.4 5.5-23 4.4 2.9 0 7 0.1 10.9-0.6 0.6-0.2 0.9-0.4 1.6-0.5 7.6-1.7 14.9-5.4 20.1-10.6-3 2.7-7.5 5.9-10.4 6.9 2.7-1.5 7.6-4.4 9.2-6.6-3.2 3.2-9.2 6.4-13 7.8-0.6 0.1 0.4-0.4-0.6 0-1.2 0.3-0.7 0.3-1 0.5-4.6 1.3-9.9 2.4-14.3 2-0.8-0.1-1.1-0.3-1.8-0.3-0.8-0.1-1.5-0.1-2.4-0.1-3.5-0.4-7.3-1.8-10.1-3-1.5-0.7-3-1.2-4.5-2.1-1.2-0.7-2.2-1.5-3.2-2.3-3.8-2.8-7-5.6-10-9.6-5.4-7.5-8.2-16.9-7.8-26.2 0.4-9.3 4.1-18.4 10-25.1-0.3 0.3 0.4-0.7 1-1.3 0 0.2-0.1 0.5 0.6-0.2 0.6-0.7-0.2-0.2 0.1-0.6 6.2-6.8 17-12.3 28.1-12.5 0.4-0.3 1.1-0.7 1.9-0.5 0 0.1-0.5 0.1-0.5 0.1 1.1-0.1 2.1-0.1 2.6 0.1 0.1-0.1-0.4-0.2 0-0.2 0.7 0.2 0.9 0 1.3 0.2-0.3 0-0.6 0-0.8 0.1 2.5 0 4.1 0.6 6.6 0.8-1.3-0.3-1.6-0.3-2.6-0.6 1.1 0.2 1.6 0.4 2.1 0.3-0.2 0-0.1-0.3 0.1-0.2 2 0.5 2.2 0.7 4.3 1.4 0.2-0.2-0.9-0.3-1.2-0.6 2 0.7 3.8 1.2 5 2-0.4-0.3-1.6-0.7-2.5-1.1-0.1 0.1 0.3 0.2 0.4 0.4-1-0.5-2.4-1-3.8-1.2 1.2 0.3 2 0.7 2.5 0.9-1.1-0.2-2.5-0.9-4.1-1.2 2.6 0.8 7.5 2.6 10.5 4.2-1.1-0.7-2.4-1.2-3.1-1.6 0.6 0.1 1.3 0.5 1.3 0.3 0.7 0.3 1.6 1 2.1 1.1-0.9-0.6-2.7-1.5-3.3-1.8 7.5 3.4 14.2 9.1 18.5 16.4 0.4 0.7 1 2.3 1.5 2.5-0.1-0.5-0.5-0.8-0.9-1.6 0.2 0 0.2-0.3 0-0.6-0.4-0.5 0 0.4-0.4-0.1-1.8-3.3-4-6.2-7.4-9.4 1.9 1.8 0.5 0.5 0.1-0.1 2.6 2.3 5.6 6.2 6.9 8.2-0.2-0.3-0.3-0.5-0.2-0.5 2.4 4.1 3.9 7.8 5.4 13.1 0.1 0.1 0-0.4 0.2-0.1 1 4.2 1.3 7.7 1.2 10.9 0.8-5.4-1-13.8-4.2-20.4-0.4-0.8-0.4-0.2-0.8-1.1 0-0.3-0.3-0.9-0.5-1.3-4-6.6-8.9-11.3-14.7-15 0.4 0.2 1.2 0.8 1.2 0.7-10.8-7.1-23.3-8.1-33.6-5.9-0.7 0.3-1 0.6-1.8 1 1.5-0.5 2.4-0.6 3.8-0.9 0.3-0.3-1.3 0.1-0.6-0.2 0.1 0.1 1.4-0.2 1.7-0.1 0 0.1-0.4 0.2-0.5 0.3 3.3-0.7 6.7-0.8 9.6-0.6-1.7 0.1-4.8-0.2-5.8 0.3 1-0.1 2.4-0.2 3.3-0.1-1.2 0-3.4 0.1-4.4 0.2-0.1-0.1 1.6-0.3 0.5-0.3-0.5 0.1-1.3 0.1-1.6 0.4-8.6 0.8-17 5.3-22.9 10.6-1.2 1-2.6 2.1-3.5 3.2-2.2 2.5-3.6 5-5.2 7.2 1-2.1 3.2-5.3 5.8-8 2.6-2.7 5.4-5 6.9-6.2 0 0.4 2.4-1.5 3.3-2.1-0.6 0.5 0.4-0.2 0.6-0.1 3.2-1.9 5.8-2.6 8.7-3.7-0.7 0.2-1.3 0.4-1.4 0.3 0.7-0.2 1.1-0.4 1-0.5-2.8 0.8-7.2 2.7-10.7 4.8 6.3-4.3 14.3-6.9 22.2-7 7.9-0.2 15.6 1.8 21.7 5 4.1 1.8 8 5.1 11.1 8.3 0.9 0.8 0.2-0.2 1.5 1.2-0.4-0.2-0.7-0.4-0.2 0.2 0.8 0.9-0.2-0.7 1.1 0.9-0.1 0-0.5-0.5-0.5-0.3 3.5 3.1 6.2 8.7 7.8 12.4-0.4-1.5-1.4-3.6-2.2-5.1 2.4 4.4 3.2 7 4.2 10.9 0.4 0.3-0.2-1.4 0.2-0.6 0.1 0.6 0.2 2.5 0.6 2.8-0.3-1.9-0.8-4.2-1.2-4.6 0.3 0.2-0.5-2.3-1-2.9-0.2-1.6-1.6-4.4-2.8-6.5-4.3-8.4-12-15.3-20.6-19.1 0-0.2-0.5-0.4-0.7-0.6-8.5-3.6-18.7-4.6-28.5-2.3-9.9 2.4-19.2 8.1-25.8 16.3 0.3-1 2.8-2.9 2.9-3.7-2.9 3.1-6 7.2-8.1 11.6-2.2 4.4-3.4 8.9-3.9 12.2" fill="#030303" fill-rule="nonzero" stroke="none" stroke-width="1" stroke-linecap="butt" stroke-linejoin="miter" stroke-miterlimit="10" stroke-dasharray="" stroke-dashoffset="0" font-family="none" font-weight="none" font-size="none" text-anchor="none" style="mix-blend-mode: normal" data-fill-palette-color="tertiary"></path></g><g transform="matrix(1,0,0,1,48,126.42973956457621)"><svg viewBox="0 0 224 107.14052087084757" height="107.14052087084757" width="224"><g><svg viewBox="0 0 225.11999999999998 107.6762234752018" height="107.14052087084757" width="224"><g><rect width="225.11999999999998" height="3.0801562536403284" x="0" y="55.26580035439523" fill="#030303" opacity="1" stroke-width="0" stroke="transparent" fill-opacity="1" class="rect-qz-0" data-fill-palette-color="primary" rx="1%" id="qz-0" data-palette-color="#030303"></rect></g><g><rect width="225.11999999999998" height="3.0801562536403284" x="0" y="62.37757474107264" fill="#030303" opacity="1" stroke-width="0" stroke="transparent" fill-opacity="1" class="rect-qz-1" data-fill-palette-color="primary" rx="1%" id="qz-1" data-palette-color="#030303"></rect></g><g transform="matrix(1,0,0,1,0.5599999999999881,73.52096726078713)"><svg viewBox="0 0 224 34.15525621441467" height="34.15525621441467" width="224"><g id="textblocktransform"><svg viewBox="0 0 224 34.15525621441467" height="34.15525621441467" width="224" id="textblock"><g><svg viewBox="0 0 224 34.15525621441467" height="34.15525621441467" width="224"><g transform="matrix(1,0,0,1,0,0)"><svg width="224" viewBox="3.7 -43.7 360.02000000000004 54.900000000000006" height="34.15525621441467" data-palette-color="#030303"><path d="M12.35-0.1Q10.75-0.1 9.22-2.33 7.7-4.55 6.45-8.45L6.45-8.45Q5.25-12.1 4.48-16.5 3.7-20.9 3.7-23.6L3.7-23.6Q3.7-24.75 4.05-25.3 4.4-25.85 5.6-25.85L5.6-25.85Q7.35-25.85 7.45-24.3L7.45-24.3Q7.75-20.15 8.13-17.63 8.5-15.1 9.6-10.95L9.6-10.95Q10.5-7.6 11.2-5.98 11.9-4.35 12.7-4.35L12.7-4.35Q13.3-4.35 14.53-8.5 15.75-12.65 17.4-19.25L17.4-19.25Q17.7-20.3 18.15-20.8 18.6-21.3 19.45-21.3L19.45-21.3Q20.3-21.3 20.7-20.83 21.1-20.35 21.5-19.25L21.5-19.25Q22.05-17.7 23.35-13.4L23.35-13.4Q24.7-8.9 25.58-6.73 26.45-4.55 27.3-4.55L27.3-4.55Q28-4.55 28.58-6.23 29.15-7.9 29.9-11.3L29.9-11.3Q30.9-15.8 31.2-18 31.5-20.2 31.7-24.15L31.7-24.15Q31.75-24.9 32.1-25.35 32.45-25.8 33.55-25.8L33.55-25.8Q34.75-25.8 35.1-25.2 35.45-24.6 35.45-23.3L35.45-23.3Q35.45-20.8 34.8-16.57 34.15-12.35 33.2-8.8L33.2-8.8Q32.1-4.7 30.7-2.4 29.3-0.1 27.7-0.1L27.7-0.1Q26.15-0.1 24.58-2.2 23-4.3 21.68-7.88 20.35-11.45 19.5-15.85L19.5-15.85Q18.55-9.1 16.63-4.6 14.7-0.1 12.35-0.1L12.35-0.1ZM54.8 0.2Q50.7 0.2 47.72-1.58 44.75-3.35 43.22-6.28 41.7-9.2 41.7-12.65L41.7-12.65Q41.7-16.2 43.3-19.18 44.9-22.15 47.85-23.9 50.8-25.65 54.65-25.65L54.65-25.65Q58.05-25.65 60.75-24.28 63.45-22.9 64.95-20.45 66.45-18 66.45-14.85L66.45-14.85Q66.45-13.35 66.1-12.73 65.75-12.1 64.35-12.05L64.35-12.05 45.3-11.65Q45.3-9.75 46.45-7.75 47.6-5.75 49.72-4.4 51.85-3.05 54.65-3.05L54.65-3.05Q56.75-3.05 58.25-3.68 59.75-4.3 60.6-5.1 61.45-5.9 62.65-7.35L62.65-7.35Q63-7.8 63.75-7.8L63.75-7.8Q64.4-7.8 64.97-7.3 65.55-6.8 65.55-6.15L65.55-6.15Q65.55-5.65 65.15-5.1L65.15-5.1Q63.55-2.9 61.27-1.35 59 0.2 54.8 0.2L54.8 0.2ZM45.3-14.65L62.7-15.1Q63.2-15.1 63.2-15.8L63.2-15.8Q63.2-18.8 60.8-20.68 58.4-22.55 54.75-22.55L54.75-22.55Q52-22.55 49.85-21.15 47.7-19.75 46.5-17.85 45.3-15.95 45.3-14.65L45.3-14.65ZM85.95-25.3Q89.59-25.3 92.45-23.73 95.3-22.15 96.9-19.25 98.5-16.35 98.5-12.4L98.5-12.4Q98.5-8.1 96.65-5.28 94.8-2.45 91.95-1.15 89.09 0.15 85.95 0.15L85.95 0.15Q83.75 0.15 81.8-0.53 79.84-1.2 78.5-2.18 77.15-3.15 76.59-4.05L76.59-4.05Q76.3-2.95 75.47-2 74.65-1.05 73.9-0.7L73.9-0.7Q73.5-0.5 73.05-0.5L73.05-0.5Q72.3-0.5 71.8-1.05 71.3-1.6 71.3-2.2L71.3-2.2Q71.3-2.8 71.8-3.25L71.8-3.25Q71.95-3.4 72.3-3.68 72.65-3.95 72.92-4.28 73.2-4.6 73.34-5.05L73.34-5.05Q73.7-6.1 73.7-8.05L73.7-8.05 73.59-11.9 73.45-19.25 73.34-26.05Q73.25-35.9 72.95-41.95L72.95-41.95Q72.9-42.7 73.45-43.13 74-43.55 74.84-43.55L74.84-43.55Q75.65-43.55 76.17-43.15 76.7-42.75 76.75-42.05L76.75-42.05Q77-37.8 77.09-34 77.2-30.2 77.25-26.1L77.25-26.1Q77.25-23.4 77.3-21.85L77.3-21.85Q78.5-23.3 80.7-24.3 82.9-25.3 85.95-25.3L85.95-25.3ZM85.9-3Q88.09-3 90.07-3.95 92.05-4.9 93.34-7.05 94.65-9.2 94.65-12.5L94.65-12.5Q94.65-17.1 92.17-19.63 89.7-22.15 85.7-22.15L85.7-22.15Q82.95-22.15 80.72-20.75 78.5-19.35 77.45-17.55L77.45-17.55 77.45-13.75Q77.45-10.85 77.59-8.95L77.59-8.95Q77.7-7.4 78.87-6.03 80.05-4.65 81.92-3.83 83.8-3 85.9-3L85.9-3ZM133.24 0.2Q129.74 0.2 126.84-1.2 123.94-2.6 122.19-5.5 120.44-8.4 120.44-12.7L120.44-12.7Q120.44-16.6 122.04-19.45 123.64-22.3 126.56-23.83 129.49-25.35 133.39-25.35L133.39-25.35Q136.19-25.35 138.31-24.53 140.44-23.7 141.69-22.4L141.69-22.4 141.69-23.45Q141.89-31.3 142.02-34.9 142.14-38.5 142.49-42.1L142.49-42.1Q142.59-42.8 143.09-43.25 143.59-43.7 144.39-43.7L144.39-43.7Q145.29-43.7 145.84-43.23 146.39-42.75 146.34-42L146.34-42Q145.99-38.35 145.69-29.45 145.39-20.55 145.39-13.4L145.39-13.4Q145.39-6.1 145.74-5L145.74-5Q146.04-3.9 146.47-3.18 146.89-2.45 147.39-2.45L147.39-2.45Q147.54-2.45 147.54-1.9L147.54-1.9Q147.54-1.15 146.89-0.55 146.24 0.05 145.44 0.05L145.44 0.05Q144.89 0.05 144.49-0.2L144.49-0.2Q143.79-0.6 143.06-1.53 142.34-2.45 142.09-4.1L142.09-4.1Q140.84-2.1 138.49-0.95 136.14 0.2 133.24 0.2L133.24 0.2ZM133.14-3.2Q135.29-3.2 137.22-4.13 139.14-5.05 140.34-6.63 141.54-8.2 141.54-10.05L141.54-10.05Q141.54-12.25 141.59-13.55L141.59-13.55 141.64-17.7Q140.79-19.3 138.54-20.65 136.29-22 133.39-22L133.39-22Q129.24-22 126.74-19.5 124.24-17 124.24-12.55L124.24-12.55Q124.24-9.35 125.56-7.25 126.89-5.15 128.94-4.17 130.99-3.2 133.14-3.2L133.14-3.2ZM165.29 0.2Q161.19 0.2 158.21-1.58 155.24-3.35 153.71-6.28 152.19-9.2 152.19-12.65L152.19-12.65Q152.19-16.2 153.79-19.18 155.39-22.15 158.34-23.9 161.29-25.65 165.14-25.65L165.14-25.65Q168.54-25.65 171.24-24.28 173.94-22.9 175.44-20.45 176.94-18 176.94-14.85L176.94-14.85Q176.94-13.35 176.59-12.73 176.24-12.1 174.84-12.05L174.84-12.05 155.79-11.65Q155.79-9.75 156.94-7.75 158.09-5.75 160.21-4.4 162.34-3.05 165.14-3.05L165.14-3.05Q167.24-3.05 168.74-3.68 170.24-4.3 171.09-5.1 171.94-5.9 173.14-7.35L173.14-7.35Q173.49-7.8 174.24-7.8L174.24-7.8Q174.89-7.8 175.46-7.3 176.04-6.8 176.04-6.15L176.04-6.15Q176.04-5.65 175.64-5.1L175.64-5.1Q174.04-2.9 171.76-1.35 169.49 0.2 165.29 0.2L165.29 0.2ZM155.79-14.65L173.19-15.1Q173.69-15.1 173.69-15.8L173.69-15.8Q173.69-18.8 171.29-20.68 168.89-22.55 165.24-22.55L165.24-22.55Q162.49-22.55 160.34-21.15 158.19-19.75 156.99-17.85 155.79-15.95 155.79-14.65L155.79-14.65ZM193.24-0.3Q191.34-0.3 189.41-3.25 187.49-6.2 185.74-11.2L185.74-11.2Q184.49-14.7 183.61-18.2 182.74-21.7 182.74-23.2L182.74-23.2Q182.74-24.15 183.26-24.63 183.79-25.1 184.69-25.1L184.69-25.1Q185.49-25.1 185.96-24.68 186.44-24.25 186.54-23.5L186.54-23.5Q187.09-19.05 189.04-12.9L189.04-12.9Q190.14-9.65 191.41-7.15 192.69-4.65 193.19-4.65L193.19-4.65Q193.79-4.65 195.04-7.03 196.29-9.4 197.59-12.9L197.59-12.9Q199.94-19.35 200.39-23.7L200.39-23.7Q200.49-24.45 200.99-24.9 201.49-25.35 202.29-25.35L202.29-25.35Q203.19-25.35 203.69-24.8 204.19-24.25 204.19-23.35L204.19-23.35Q204.19-21.8 203.31-18.43 202.44-15.05 201.04-11.4L201.04-11.4Q196.79-0.3 193.24-0.3L193.24-0.3ZM222.68 0.2Q218.58 0.2 215.61-1.58 212.63-3.35 211.11-6.28 209.58-9.2 209.58-12.65L209.58-12.65Q209.58-16.2 211.18-19.18 212.78-22.15 215.73-23.9 218.68-25.65 222.53-25.65L222.53-25.65Q225.93-25.65 228.63-24.28 231.33-22.9 232.83-20.45 234.33-18 234.33-14.85L234.33-14.85Q234.33-13.35 233.98-12.73 233.63-12.1 232.23-12.05L232.23-12.05 213.18-11.65Q213.18-9.75 214.33-7.75 215.48-5.75 217.61-4.4 219.73-3.05 222.53-3.05L222.53-3.05Q224.63-3.05 226.13-3.68 227.63-4.3 228.48-5.1 229.33-5.9 230.53-7.35L230.53-7.35Q230.88-7.8 231.63-7.8L231.63-7.8Q232.28-7.8 232.86-7.3 233.43-6.8 233.43-6.15L233.43-6.15Q233.43-5.65 233.03-5.1L233.03-5.1Q231.43-2.9 229.16-1.35 226.88 0.2 222.68 0.2L222.68 0.2ZM213.18-14.65L230.58-15.1Q231.08-15.1 231.08-15.8L231.08-15.8Q231.08-18.8 228.68-20.68 226.28-22.55 222.63-22.55L222.63-22.55Q219.88-22.55 217.73-21.15 215.58-19.75 214.38-17.85 213.18-15.95 213.18-14.65L213.18-14.65ZM243.63-0.45Q242.78-0.45 242.25-0.9 241.73-1.35 241.73-2.2L241.73-2.2 241.43-37.8Q241.43-38.65 241.98-39.13 242.53-39.6 243.43-39.6L243.43-39.6Q244.28-39.6 244.78-39.13 245.28-38.65 245.28-37.85L245.28-37.85 245.53-2.2Q245.53-1.35 245-0.9 244.48-0.45 243.63-0.45L243.63-0.45ZM265.08 0.05Q259.43 0.05 255.7-2.95 251.98-5.95 251.98-12.35L251.98-12.35Q251.98-16.35 253.5-19.38 255.03-22.4 257.93-24.1 260.83-25.8 264.78-25.8L264.78-25.8Q268.58-25.8 271.6-24.23 274.63-22.65 276.35-19.63 278.08-16.6 278.08-12.4L278.08-12.4Q278.08-6.3 274.5-3.13 270.93 0.05 265.08 0.05L265.08 0.05ZM264.98-3.1Q268.98-3.1 271.6-5.48 274.23-7.85 274.23-12.45L274.23-12.45Q274.23-15.45 273.05-17.78 271.88-20.1 269.75-21.38 267.63-22.65 264.88-22.65L264.88-22.65Q260.78-22.65 258.3-19.85 255.83-17.05 255.83-12.45L255.83-12.45Q255.83-7.6 258.48-5.35 261.13-3.1 264.98-3.1L264.98-3.1ZM296.07-25.65Q299.43-25.65 302.2-24.23 304.97-22.8 306.63-19.93 308.27-17.05 308.27-12.85L308.27-12.85Q308.27-8.8 306.7-5.88 305.13-2.95 302.32-1.45 299.52 0.05 295.93 0.05L295.93 0.05Q292.97 0.05 290.57-0.8 288.18-1.65 287.02-2.5L287.02-2.5 286.88 2.55 286.68 9.6Q286.63 10.35 286.1 10.78 285.57 11.2 284.72 11.2L284.72 11.2Q283.82 11.2 283.35 10.73 282.88 10.25 282.88 9.45L282.88 9.45Q282.97 5.4 283.07 3.15L283.07 3.15 283.22-2.3Q283.38-8.25 283.38-17.55L283.38-17.55Q283.38-19.1 283.02-20.13 282.68-21.15 281.93-22.05L281.93-22.05Q281.88-22.1 281.65-22.33 281.43-22.55 281.43-23L281.43-23Q281.43-23.65 282.15-24.23 282.88-24.8 283.52-24.8L283.52-24.8Q283.88-24.8 284.15-24.63 284.43-24.45 284.47-24.4L284.47-24.4Q284.82-24.1 285.45-23.1 286.07-22.1 286.47-21.15L286.47-21.15Q287.68-22.9 290.13-24.28 292.57-25.65 296.07-25.65L296.07-25.65ZM295.88-3.15Q299.68-3.15 302.05-5.7 304.43-8.25 304.43-12.9L304.43-12.9Q304.43-17.75 301.97-20.05 299.52-22.35 295.93-22.35L295.93-22.35Q293.43-22.35 291.43-21.23 289.43-20.1 288.32-18.6 287.22-17.1 287.22-16.2L287.22-16.2Q287.22-10.7 287.18-6.75L287.18-6.75Q287.43-6.1 288.77-5.23 290.13-4.35 292.05-3.75 293.97-3.15 295.88-3.15L295.88-3.15ZM326.67 0.2Q322.57 0.2 319.6-1.58 316.62-3.35 315.1-6.28 313.57-9.2 313.57-12.65L313.57-12.65Q313.57-16.2 315.17-19.18 316.77-22.15 319.72-23.9 322.67-25.65 326.52-25.65L326.52-25.65Q329.92-25.65 332.62-24.28 335.32-22.9 336.82-20.45 338.32-18 338.32-14.85L338.32-14.85Q338.32-13.35 337.97-12.73 337.62-12.1 336.22-12.05L336.22-12.05 317.17-11.65Q317.17-9.75 318.32-7.75 319.47-5.75 321.6-4.4 323.72-3.05 326.52-3.05L326.52-3.05Q328.62-3.05 330.12-3.68 331.62-4.3 332.47-5.1 333.32-5.9 334.52-7.35L334.52-7.35Q334.87-7.8 335.62-7.8L335.62-7.8Q336.27-7.8 336.85-7.3 337.42-6.8 337.42-6.15L337.42-6.15Q337.42-5.65 337.02-5.1L337.02-5.1Q335.42-2.9 333.15-1.35 330.87 0.2 326.67 0.2L326.67 0.2ZM317.17-14.65L334.57-15.1Q335.07-15.1 335.07-15.8L335.07-15.8Q335.07-18.8 332.67-20.68 330.27-22.55 326.62-22.55L326.62-22.55Q323.87-22.55 321.72-21.15 319.57-19.75 318.37-17.85 317.17-15.95 317.17-14.65L317.17-14.65ZM356.92-25.7Q360.12-25.7 361.92-23.68 363.72-21.65 363.72-18.75L363.72-18.75Q363.72-16 362.07-14.43 360.42-12.85 357.82-12.85L357.82-12.85Q356.82-12.85 356.39-13.15 355.97-13.45 355.97-14.25L355.97-14.25Q355.97-15.55 357.22-15.6L357.22-15.6Q360.47-15.9 360.47-18.8L360.47-18.8Q360.47-20.35 359.62-21.45 358.77-22.55 356.87-22.55L356.87-22.55Q354.87-22.55 353.39-20.85 351.92-19.15 351.07-16.63 350.22-14.1 350.07-11.65L350.07-11.65Q349.77-7.05 349.77-2.95L349.77-2.95Q349.77-0.9 349.39-0.25 349.02 0.4 347.92 0.4L347.92 0.4Q346.82 0.4 346.39-0.13 345.97-0.65 345.97-1.95L345.97-1.95 345.92-11.5Q345.92-14.8 345.42-20.2L345.42-20.2Q345.12-23.35 345.07-24.7L345.07-24.7Q345.02-25.5 345.52-25.93 346.02-26.35 346.92-26.35L346.92-26.35Q348.47-26.35 348.57-24.85L348.57-24.85Q348.87-21.7 348.92-18.7L348.92-18.7Q349.77-22 351.87-23.85 353.97-25.7 356.92-25.7L356.92-25.7Z" opacity="1" transform="matrix(1,0,0,1,0,0)" fill="#030303" class="wordmark-text-0" data-fill-palette-color="primary" id="text-0"></path></svg></g></svg></g></svg></g></svg></g><g transform="matrix(1,0,0,1,76.27768311057508,0)"><svg viewBox="0 0 72.56463377884981 47.202564088321076" height="47.202564088321076" width="72.56463377884981"><g><svg xmlns="http://www.w3.org/2000/svg" xmlns:xlink="http://www.w3.org/1999/xlink" version="1.1" x="0" y="0" viewBox="5.9 129.5 89.62475304077105 58.30000000000001" enable-background="new 0 107.3 100 100" xml:space="preserve" height="47.202564088321076" width="72.56463377884981" class="icon-icon-0" data-fill-palette-color="accent" id="icon-0"><path d="M71.8 174.8c0-3-2.3-4.4-5.2-4.4H49.9L43.2 152l0 0c-1-3.2-4-5.6-7.6-5.6-1.3 0-2.5 0.3-3.6 0.9l0 0C17.5 154.5 9.1 168 5.9 187.7l19 0c0.5-8.3 2-18 8.8-23.8l7.8 11.7 0 0c0.9 1.7 2.7 3 4.7 3h20.3C69.6 178.5 71.8 177.7 71.8 174.8z" fill="#030303" data-fill-palette-color="accent"></path><path d="M84.7 187.8H67.5c-1.9 0-3.5-1.6-3.5-3.5s1.6-3.5 3.5-3.5h14.7l6.5-18.5c0.6-1.8 2.6-2.8 4.5-2.1 1.8 0.6 2.8 2.6 2.1 4.5L88 185.5C87.5 186.9 86.2 187.8 84.7 187.8z" fill="#030303" data-fill-palette-color="accent"></path><path fill="#030303" d="M51.7 129.5c-2.5 0-4.8 0.9-6.5 2.4-0.9-1.5-2.5-2.4-4.4-2.4-2.9 0-5.2 2.3-5.2 5.2s2.3 5.2 5.2 5.2c0.3 0 0.6 0 0.9-0.1 0.2 5.4 4.6 9.6 10 9.6 5.5 0 10-4.5 10-10S57.2 129.5 51.7 129.5z" data-fill-palette-color="accent"></path></svg></g></svg></g><g></g></svg></g></svg></g></svg></g><defs></defs></svg><rect width="320" height="360" fill="none" stroke="none" visibility="hidden"></rect></g></svg></g></svg>